# xmcd CD database file
#
# Track frame offsets:
#	150
#	20413
#	34455
#	56099
#	71620
#	83716
#	96352
#	113665
#	127842
#	143133
#	156743
#	169580
#	180660
#	196359
#	209860
#	224510
#	237254
#	257916
#	281391
#	294086
#
# Disc length: 4110 seconds
#
# Revision: 0
# Processed by: cddbd v1.5.1PL2 Copyright (c) Steve Scherf et al.
# Submitted via: CDex 1.51
#
DISCID=32100c14
DTITLE=Stan Kenton - Viva Kenton - Stan Kenton
DYEAR=1900
DGENRE=Jazz
TTITLE0=Stan Kenton - Mexican Jumping Bean
TTITLE1=Stan Kenton - Siesta
TTITLE2=Stan Kenton - Cha Cha Sombrero
TTITLE3=Stan Kenton - Chocolate Caliente
TTITLE4=Stan Kenton - Aqua Marine
TTITLE5=Stan Kenton - Opus In Chartreuse Cha-Cha-Cha
TTITLE6=Stan Kenton - Cha Cha Chee Boom
TTITLE7=Stan Kenton - Adios
TTITLE8=Stan Kenton - Mission Trail
TTITLE9=Stan Kenton - Artistry In Rhythm
TTITLE10=Stan Kenton - Artistry In Bossa Nova (Aka Artistry In Bolero) (Bonus Track)
TTITLE11=Stan Kenton - Interlude (Bonus Track)
TTITLE12=Stan Kenton - Jump For Joe (Bonus Track)
TTITLE13=Stan Kenton - Opus In Pastels (Bonus Track)
TTITLE14=Stan Kenton - Concerto To End All Concertos (Bonus Track)
TTITLE15=Stan Kenton - Loco-Nova (Bonus Track)
TTITLE16=Stan Kenton - The Peanut Vendor
TTITLE17=Stan Kenton and His Orchestra - Too Shy To Say
TTITLE18=Stan Kenton - Baia
TTITLE19=Stan Kenton - Harlem Nocturne
EXTD=
EXTT0=
EXTT1=
EXTT2=
EXTT3=
EXTT4=
EXTT5=
EXTT6=
EXTT7=
EXTT8=
EXTT9=
EXTT10=
EXTT11=
EXTT12=
EXTT13=
EXTT14=
EXTT15=
EXTT16=
EXTT17=
EXTT18=
EXTT19=
PLAYORDER=
